<svg width="100" height="100" viewBox="0 0 100 100" fill="none" xmlns="http://www.w3.org/2000/svg">
<path d="M81.8839 20.8067C75.9184 18.0739 69.6236 16.1235 63.1564 15.004C63.0978 14.9941 63.0376 15.0026 62.984 15.0283C62.9305 15.054 62.8862 15.0957 62.8574 15.1475C62.0466 16.5824 61.1496 18.4592 60.5229 19.9285C53.5517 18.8725 46.4608 18.8725 39.4896 19.9285C38.7905 18.2917 37.9996 16.6955 37.1206 15.1475C37.0911 15.0962 37.0468 15.0551 36.9934 15.0295C36.94 15.0039 36.8802 14.995 36.8216 15.004C30.3529 16.1175 24.0568 18.0689 18.0941 20.8067C18.0431 20.8261 18.0004 20.8627 17.9733 20.91C6.04795 38.697 2.77623 56.0477 4.38047 73.1804C4.38622 73.2607 4.43797 73.3411 4.50122 73.3927C11.4456 78.5275 19.213 82.4478 27.4722 84.9867C27.5305 85.0051 27.5932 85.0044 27.6511 84.9848C27.709 84.9652 27.7591 84.9276 27.7942 84.8776C29.5652 82.467 31.1407 79.9244 32.4977 77.2497C32.526 77.1947 32.5356 77.1319 32.5253 77.0709C32.5149 77.0099 32.4851 76.9538 32.4402 76.9111C32.4105 76.8831 32.3752 76.8616 32.3367 76.848C29.8594 75.8976 27.4601 74.7558 25.1607 73.4329C25.0965 73.3966 25.0488 73.337 25.0274 73.2665C25.0059 73.196 25.0125 73.1199 25.0458 73.0541C25.0653 73.0114 25.0949 72.974 25.132 72.9451C25.615 72.5835 26.098 72.2046 26.558 71.8258C26.5986 71.7932 26.6474 71.7723 26.699 71.7652C26.7507 71.7581 26.8033 71.7652 26.8512 71.7857C41.9103 78.6502 58.2114 78.6502 73.0865 71.7857C73.1362 71.7642 73.1908 71.7566 73.2444 71.7637C73.2981 71.7707 73.3489 71.7922 73.3912 71.8258C73.8512 72.2046 74.3342 72.5835 74.8172 72.9451C74.8564 72.9736 74.8878 73.0114 74.9087 73.055C74.9297 73.0987 74.9394 73.1468 74.9371 73.1952C74.9349 73.2435 74.9206 73.2905 74.8957 73.332C74.8707 73.3735 74.8359 73.4082 74.7942 73.4329C72.5001 74.7679 70.0978 75.9084 67.6126 76.8422C67.5729 76.8566 67.5369 76.8794 67.5071 76.9092C67.4773 76.9389 67.4544 76.9748 67.4401 77.0144C67.4268 77.0528 67.4214 77.0934 67.4244 77.1339C67.4274 77.1743 67.4386 77.2137 67.4573 77.2497C68.8373 79.9186 70.4185 82.467 72.155 84.8776C72.1901 84.9276 72.2402 84.9652 72.2981 84.9848C72.356 85.0044 72.4187 85.0051 72.477 84.9867C80.7501 82.4557 88.5301 78.5348 95.4825 73.3927C95.5173 73.3687 95.5463 73.3371 95.5672 73.3003C95.5881 73.2636 95.6004 73.2226 95.6033 73.1804C97.5237 53.3731 92.389 36.1658 81.9989 20.9158C81.9884 20.8906 81.9728 20.8678 81.953 20.8491C81.9332 20.8303 81.9096 20.8159 81.8839 20.8067V20.8067ZM34.7459 62.7458C30.2092 62.7458 26.4775 58.5904 26.4775 53.4936C26.4775 48.3911 30.1402 44.2357 34.7459 44.2357C39.3861 44.2357 43.0833 48.4256 43.0143 53.4936C43.0143 58.5904 39.3516 62.7458 34.7459 62.7458ZM65.3126 62.7458C60.7816 62.7458 57.0442 58.5904 57.0442 53.4936C57.0442 48.3911 60.7069 44.2357 65.3126 44.2357C69.9528 44.2357 73.6557 48.4256 73.581 53.4936C73.581 58.5904 69.9528 62.7458 65.3126 62.7458Z" fill="#5865F2"/>
</svg>
