<svg width="100" height="100" viewBox="0 0 100 100" fill="none" xmlns="http://www.w3.org/2000/svg">
<path d="M26.5983 25.3221C28.9524 27.2387 29.8441 27.1033 34.2885 26.8064L76.1876 24.2962C77.0793 24.2962 76.3374 23.4056 76.0378 23.256L69.0776 18.2332C67.7531 17.193 65.9696 16.0198 62.562 16.3024L22.0017 19.271C20.5155 19.4063 20.2183 20.1497 20.8128 20.7434L26.5983 25.3221ZM29.1117 35.0829V79.1034C29.1117 81.4664 30.2888 82.357 32.9521 82.2074L79.0007 79.5476C81.6639 79.3979 81.9731 77.7783 81.9731 75.8499V32.1261C81.9731 30.1954 81.2288 29.1694 79.5951 29.319L31.4801 32.1261C29.6967 32.2758 29.1141 33.1521 29.1141 35.071L29.1117 35.0829ZM74.5658 37.4316C74.8631 38.7687 74.5658 40.0915 73.227 40.2529L71.0108 40.6994V73.1924C69.0776 74.2326 67.3084 74.8263 65.8341 74.8263C63.4561 74.8263 62.8617 74.083 61.0901 71.8696L46.5752 49.1112V71.1286L51.1694 72.1688C51.1694 72.1688 51.1694 74.8287 47.467 74.8287L37.249 75.4224C36.9518 74.8287 37.249 73.3444 38.2905 73.0594L40.9538 72.3161V43.212L37.2514 42.9152C36.9541 41.5781 37.6984 39.6616 39.7648 39.5144L50.7247 38.771L65.8341 61.8263V41.4285L61.9818 40.982C61.6846 39.3624 62.8617 38.1749 64.3479 38.0372L74.5658 37.4316ZM18.5965 15.2788L60.7929 12.1749C65.9696 11.7284 67.3084 12.0252 70.5638 14.3882L84.0395 23.8497C86.2557 25.4694 87 25.9159 87 27.6851V79.5499C87 82.8035 85.811 84.72 81.6734 85.0169L32.6525 87.9736C29.5564 88.1232 28.0702 87.6767 26.4342 85.6106L16.5135 72.7459C14.7419 70.3829 14 68.6136 14 66.5499V20.4513C14 17.7914 15.189 15.578 18.5942 15.2812L18.5965 15.2788Z" fill="black"/>
</svg>
