<svg width="100" height="100" viewBox="0 0 100 100" fill="none" xmlns="http://www.w3.org/2000/svg">
<path d="M19.5568 37C19.4811 36.053 19.1259 35.3144 18.4915 34.7841C17.8665 34.2538 16.9148 33.9886 15.6364 33.9886C14.822 33.9886 14.1544 34.0881 13.6335 34.2869C13.1222 34.4763 12.7434 34.7367 12.4972 35.0682C12.2509 35.3996 12.1231 35.7784 12.1136 36.2045C12.0947 36.5549 12.1563 36.8722 12.2983 37.1562C12.4498 37.4309 12.6866 37.6818 13.0085 37.9091C13.3305 38.1269 13.7424 38.3258 14.2443 38.5057C14.7462 38.6856 15.3428 38.8466 16.0341 38.9886L18.4205 39.5C20.0303 39.8409 21.4081 40.2907 22.554 40.8494C23.6998 41.4081 24.6373 42.0663 25.3665 42.8239C26.0956 43.572 26.6307 44.4148 26.9716 45.3523C27.322 46.2898 27.5019 47.3125 27.5114 48.4205C27.5019 50.3333 27.0237 51.9527 26.0767 53.2784C25.1297 54.6042 23.7756 55.6127 22.0142 56.304C20.2623 56.9953 18.1553 57.3409 15.6932 57.3409C13.1648 57.3409 10.9583 56.9669 9.07386 56.2188C7.19886 55.4706 5.74053 54.3201 4.69886 52.767C3.66667 51.2045 3.14583 49.2064 3.13636 46.7727H10.6364C10.6837 47.6629 10.9063 48.411 11.304 49.017C11.7017 49.6231 12.2604 50.0824 12.9801 50.3949C13.7093 50.7074 14.5758 50.8636 15.5795 50.8636C16.4223 50.8636 17.1278 50.7595 17.696 50.5511C18.2642 50.3428 18.6951 50.054 18.9886 49.6847C19.2822 49.3153 19.4337 48.8939 19.4432 48.4205C19.4337 47.9754 19.2869 47.5871 19.0028 47.2557C18.7282 46.9148 18.2737 46.6117 17.6392 46.3466C17.0047 46.072 16.1477 45.8163 15.0682 45.5795L12.1705 44.9545C9.5947 44.3958 7.56345 43.4631 6.0767 42.1562C4.59943 40.84 3.86553 39.0455 3.875 36.7727C3.86553 34.9261 4.35795 33.3116 5.35227 31.929C6.35606 30.5369 7.74337 29.4527 9.5142 28.6761C11.2945 27.8996 13.3352 27.5114 15.6364 27.5114C17.9848 27.5114 20.0161 27.9044 21.7301 28.6903C23.4441 29.4763 24.7652 30.5843 25.6932 32.0142C26.6307 33.4347 27.1042 35.0966 27.1136 37H19.5568ZM37.902 57L29.3224 27.9091H38.1293L42.1065 45.8068H42.3338L47.0497 27.9091H53.9815L58.6974 45.8636H58.9247L62.902 27.9091H71.7088L63.1293 57H55.5724L50.6293 40.75H50.402L45.4588 57H37.902ZM89.4787 37C89.4029 36.053 89.0478 35.3144 88.4134 34.7841C87.7884 34.2538 86.8366 33.9886 85.5582 33.9886C84.7438 33.9886 84.0762 34.0881 83.5554 34.2869C83.044 34.4763 82.6652 34.7367 82.419 35.0682C82.1728 35.3996 82.045 35.7784 82.0355 36.2045C82.0166 36.5549 82.0781 36.8722 82.2202 37.1562C82.3717 37.4309 82.6084 37.6818 82.9304 37.9091C83.2524 38.1269 83.6643 38.3258 84.1662 38.5057C84.6681 38.6856 85.2647 38.8466 85.956 38.9886L88.3423 39.5C89.9522 39.8409 91.33 40.2907 92.4759 40.8494C93.6217 41.4081 94.5592 42.0663 95.2884 42.8239C96.0175 43.572 96.5526 44.4148 96.8935 45.3523C97.2438 46.2898 97.4238 47.3125 97.4332 48.4205C97.4238 50.3333 96.9455 51.9527 95.9986 53.2784C95.0516 54.6042 93.6974 55.6127 91.9361 56.304C90.1842 56.9953 88.0772 57.3409 85.6151 57.3409C83.0866 57.3409 80.8802 56.9669 78.9957 56.2188C77.1207 55.4706 75.6624 54.3201 74.6207 52.767C73.5885 51.2045 73.0677 49.2064 73.0582 46.7727H80.5582C80.6056 47.6629 80.8281 48.411 81.2259 49.017C81.6236 49.6231 82.1823 50.0824 82.902 50.3949C83.6312 50.7074 84.4976 50.8636 85.5014 50.8636C86.3442 50.8636 87.0497 50.7595 87.6179 50.5511C88.1861 50.3428 88.617 50.054 88.9105 49.6847C89.2041 49.3153 89.3556 48.8939 89.3651 48.4205C89.3556 47.9754 89.2088 47.5871 88.9247 47.2557C88.6501 46.9148 88.1955 46.6117 87.5611 46.3466C86.9266 46.072 86.0696 45.8163 84.9901 45.5795L82.0923 44.9545C79.5166 44.3958 77.4853 43.4631 75.9986 42.1562C74.5213 40.84 73.7874 39.0455 73.7969 36.7727C73.7874 34.9261 74.2798 33.3116 75.2741 31.929C76.2779 30.5369 77.6652 29.4527 79.4361 28.6761C81.2164 27.8996 83.2571 27.5114 85.5582 27.5114C87.9067 27.5114 89.938 27.9044 91.652 28.6903C93.366 29.4763 94.687 30.5843 95.6151 32.0142C96.5526 33.4347 97.026 35.0966 97.0355 37H89.4787Z" fill="black"/>
<path d="M19.5569 36.9999C19.4812 36.0529 19.1261 35.3143 18.4916 34.784C17.8666 34.2537 16.9149 33.9885 15.6365 33.9885C14.8221 33.9885 14.1545 34.0879 13.6336 34.2868C13.1223 34.4762 12.7435 34.7366 12.4973 35.068C12.2511 35.3995 12.1232 35.7783 12.1137 36.2044C12.0948 36.5548 12.1564 36.872 12.2984 37.1561C12.4499 37.4307 12.6867 37.6817 13.0086 37.909C13.3306 38.1268 13.7425 38.3256 14.2444 38.5055C14.7463 38.6855 15.3429 38.8465 16.0342 38.9885L18.4206 39.4999C20.0304 39.8408 21.4083 40.2906 22.5541 40.8493C23.6999 41.408 24.6374 42.0662 25.3666 42.8237C26.0958 43.5718 26.6308 44.4146 26.9717 45.3521C27.3221 46.2896 27.502 47.3124 27.5115 48.4203C27.502 50.3332 27.0238 51.9525 26.0768 53.2783C25.1298 54.604 23.7757 55.6126 22.0143 56.3038C20.2624 56.9951 18.1554 57.3408 15.6933 57.3408C13.1649 57.3408 10.9584 56.9667 9.07397 56.2186C7.19897 55.4705 5.74064 54.3199 4.69897 52.7669C3.66678 51.2044 3.14594 49.2063 3.13647 46.7726H10.6365C10.6838 47.6627 10.9064 48.4109 11.3041 49.0169C11.7018 49.623 12.2605 50.0823 12.9802 50.3948C13.7094 50.7073 14.5759 50.8635 15.5797 50.8635C16.4225 50.8635 17.128 50.7593 17.6961 50.551C18.2643 50.3427 18.6952 50.0538 18.9887 49.6845C19.2823 49.3152 19.4338 48.8938 19.4433 48.4203C19.4338 47.9752 19.287 47.587 19.003 47.2555C18.7283 46.9146 18.2738 46.6116 17.6393 46.3465C17.0048 46.0718 16.1478 45.8162 15.0683 45.5794L12.1706 44.9544C9.59481 44.3957 7.56356 43.4629 6.07682 42.1561C4.59954 40.8398 3.86564 39.0453 3.87511 36.7726C3.86564 34.926 4.35807 33.3114 5.35238 31.9288C6.35617 30.5368 7.74348 29.4525 9.51432 28.676C11.2946 27.8995 13.3353 27.5112 15.6365 27.5112C17.985 27.5112 20.0162 27.9042 21.7302 28.6902C23.4442 29.4762 24.7653 30.5841 25.6933 32.0141C26.6308 33.4345 27.1043 35.0965 27.1137 36.9999H19.5569Z" fill="#0478FF"/>
<path d="M37.9021 56.9999L29.3226 27.909H38.1294L42.1066 45.8067H42.3339L47.0498 27.909H53.9816L58.6976 45.8635L57 47.5L53.2911 49.5L52.5 42L53.2911 39.5V49.5L50.6294 40.7499H50.4021L45.4589 56.9999H37.9021Z" fill="#0478FF"/>
<path d="M10.5838 67.5C10.5554 67.1449 10.4222 66.8679 10.1843 66.669C9.94993 66.4702 9.59304 66.3707 9.11364 66.3707C8.80824 66.3707 8.55788 66.408 8.36257 66.4826C8.17081 66.5536 8.02876 66.6513 7.93643 66.7756C7.84411 66.8999 7.79616 67.0419 7.79261 67.2017C7.78551 67.3331 7.80859 67.4521 7.86186 67.5586C7.91868 67.6616 8.00746 67.7557 8.1282 67.8409C8.24893 67.9226 8.40341 67.9972 8.59162 68.0646C8.77983 68.1321 9.00355 68.1925 9.26278 68.2457L10.1577 68.4375C10.7614 68.5653 11.2781 68.734 11.7077 68.9435C12.1374 69.1531 12.489 69.3999 12.7624 69.6839C13.0359 69.9645 13.2365 70.2805 13.3643 70.6321C13.4957 70.9837 13.5632 71.3672 13.5668 71.7827C13.5632 72.5 13.3839 73.1072 13.0288 73.6044C12.6737 74.1016 12.1658 74.4798 11.5053 74.739C10.8484 74.9982 10.0582 75.1278 9.13494 75.1278C8.18679 75.1278 7.35938 74.9876 6.6527 74.707C5.94957 74.4265 5.4027 73.995 5.01207 73.4126C4.625 72.8267 4.42969 72.0774 4.42614 71.1648H7.23864C7.25639 71.4986 7.33984 71.7791 7.48899 72.0064C7.63814 72.2337 7.84766 72.4059 8.11754 72.5231C8.39098 72.6403 8.71591 72.6989 9.09233 72.6989C9.40838 72.6989 9.67294 72.6598 9.88601 72.5817C10.0991 72.5036 10.2607 72.3952 10.3707 72.2567C10.4808 72.1183 10.5376 71.9602 10.5412 71.7827C10.5376 71.6158 10.4826 71.4702 10.3761 71.3459C10.2731 71.218 10.1026 71.1044 9.8647 71.005C9.62678 70.902 9.3054 70.8061 8.90057 70.7173L7.81392 70.483C6.84801 70.2734 6.08629 69.9237 5.52876 69.4336C4.97479 68.94 4.69957 68.267 4.70312 67.4148C4.69957 66.7223 4.88423 66.1168 5.2571 65.5984C5.63352 65.0763 6.15376 64.6697 6.81783 64.3786C7.48544 64.0874 8.25071 63.9418 9.11364 63.9418C9.99432 63.9418 10.756 64.0891 11.3988 64.3839C12.0415 64.6786 12.5369 65.0941 12.8849 65.6303C13.2365 66.163 13.4141 66.7862 13.4176 67.5H10.5838ZM26.6115 69.5455C26.6115 70.7599 26.3754 71.7844 25.9031 72.619C25.4308 73.4499 24.7934 74.0803 23.9908 74.5099C23.1882 74.9361 22.2934 75.1491 21.3061 75.1491C20.3118 75.1491 19.4134 74.9343 18.6108 74.5046C17.8118 74.0714 17.1762 73.4393 16.7039 72.6083C16.2351 71.7738 16.0007 70.7528 16.0007 69.5455C16.0007 68.331 16.2351 67.3082 16.7039 66.4773C17.1762 65.6428 17.8118 65.0124 18.6108 64.5863C19.4134 64.1566 20.3118 63.9418 21.3061 63.9418C22.2934 63.9418 23.1882 64.1566 23.9908 64.5863C24.7934 65.0124 25.4308 65.6428 25.9031 66.4773C26.3754 67.3082 26.6115 68.331 26.6115 69.5455ZM23.5647 69.5455C23.5647 68.892 23.4777 68.3416 23.3037 67.8942C23.1332 67.4432 22.8793 67.1023 22.5419 66.8714C22.2081 66.6371 21.7962 66.5199 21.3061 66.5199C20.8161 66.5199 20.4024 66.6371 20.065 66.8714C19.7312 67.1023 19.4773 67.4432 19.3033 67.8942C19.1328 68.3416 19.0476 68.892 19.0476 69.5455C19.0476 70.1989 19.1328 70.7511 19.3033 71.2021C19.4773 71.6495 19.7312 71.9904 20.065 72.2248C20.4024 72.4556 20.8161 72.571 21.3061 72.571C21.7962 72.571 22.2081 72.4556 22.5419 72.2248C22.8793 71.9904 23.1332 71.6495 23.3037 71.2021C23.4777 70.7511 23.5647 70.1989 23.5647 69.5455ZM31.4132 75L28.1959 64.0909H31.4985L32.99 70.8026H33.0752L34.8436 64.0909H37.4431L39.2115 70.8239H39.2968L40.7882 64.0909H44.0908L40.8735 75H38.0397L36.186 68.9062H36.1007L34.2471 75H31.4132ZM46.3996 75V64.0909H54.2618V66.4773H49.3613V68.3523H53.857V70.7386H49.3613V72.6136H54.2405V75H46.3996Z" fill="black"/>
<path d="M62.9613 67.5C62.9329 67.1449 62.7998 66.8679 62.5618 66.669C62.3275 66.4702 61.9706 66.3707 61.4912 66.3707C61.1858 66.3707 60.9354 66.408 60.7401 66.4826C60.5484 66.5536 60.4063 66.6513 60.314 66.7756C60.2216 66.8999 60.1737 67.0419 60.1702 67.2017C60.1631 67.3331 60.1861 67.4521 60.2394 67.5586C60.2962 67.6616 60.385 67.7557 60.5057 67.8409C60.6265 67.9226 60.7809 67.9972 60.9692 68.0646C61.1574 68.1321 61.3811 68.1925 61.6403 68.2457L62.5352 68.4375C63.1389 68.5653 63.6556 68.734 64.0853 68.9435C64.515 69.1531 64.8665 69.3999 65.14 69.6839C65.4134 69.9645 65.614 70.2805 65.7419 70.6321C65.8733 70.9837 65.9408 71.3672 65.9443 71.7827C65.9408 72.5 65.7614 73.1072 65.4063 73.6044C65.0512 74.1016 64.5434 74.4798 63.8829 74.739C63.2259 74.9982 62.4358 75.1278 61.5125 75.1278C60.5643 75.1278 59.7369 74.9876 59.0302 74.707C58.3271 74.4265 57.7802 73.995 57.3896 73.4126C57.0025 72.8267 56.8072 72.0774 56.8037 71.1648H59.6162C59.6339 71.4986 59.7174 71.7791 59.8665 72.0064C60.0157 72.2337 60.2252 72.4059 60.4951 72.5231C60.7685 72.6403 61.0934 72.6989 61.4699 72.6989C61.7859 72.6989 62.0505 72.6598 62.2635 72.5817C62.4766 72.5036 62.6382 72.3952 62.7483 72.2567C62.8584 72.1183 62.9152 71.9602 62.9187 71.7827C62.9152 71.6158 62.8601 71.4702 62.7536 71.3459C62.6506 71.218 62.4802 71.1044 62.2422 71.005C62.0043 70.902 61.6829 70.8061 61.2781 70.7173L60.1915 70.483C59.2256 70.2734 58.4638 69.9237 57.9063 69.4336C57.3523 68.94 57.0771 68.267 57.0807 67.4148C57.0771 66.7223 57.2618 66.1168 57.6346 65.5984C58.0111 65.0763 58.5313 64.6697 59.1954 64.3786C59.863 64.0874 60.6283 63.9418 61.4912 63.9418C62.3719 63.9418 63.1336 64.0891 63.7763 64.3839C64.4191 64.6786 64.9145 65.0941 65.2625 65.6303C65.614 66.163 65.7916 66.7862 65.7952 67.5H62.9613ZM71.3825 64.0909V75H68.4209V64.0909H71.3825ZM81.2206 67.6918C81.1745 67.5036 81.1017 67.3384 81.0023 67.1964C80.9028 67.0508 80.7785 66.9283 80.6294 66.8288C80.4838 66.7259 80.3133 66.6495 80.118 66.5998C79.9263 66.5465 79.715 66.5199 79.4841 66.5199C78.987 66.5199 78.5626 66.6388 78.2111 66.8768C77.863 67.1147 77.5967 67.4574 77.4121 67.9048C77.2309 68.3523 77.1404 68.892 77.1404 69.5241C77.1404 70.1634 77.2274 70.7102 77.4014 71.1648C77.5754 71.6193 77.8346 71.9673 78.1791 72.2088C78.5236 72.4503 78.9515 72.571 79.4628 72.571C79.9138 72.571 80.2885 72.5053 80.5868 72.3739C80.8886 72.2425 81.1141 72.0561 81.2633 71.8146C81.4124 71.5732 81.487 71.2891 81.487 70.9624L81.9983 71.0156H79.5054V68.9062H84.3421V70.419C84.3421 71.4134 84.1308 72.2638 83.7082 72.9705C83.2892 73.6737 82.7104 74.2134 81.9717 74.5898C81.2366 74.9627 80.3932 75.1491 79.4415 75.1491C78.3797 75.1491 77.4476 74.9237 76.645 74.4727C75.8425 74.0217 75.2157 73.3789 74.7647 72.5444C74.3172 71.7099 74.0935 70.7173 74.0935 69.5668C74.0935 68.6648 74.2302 67.8658 74.5037 67.1697C74.7807 66.4737 75.1642 65.886 75.6542 65.4066C76.1443 64.9237 76.7107 64.5597 77.3535 64.3146C77.9962 64.0661 78.6851 63.9418 79.4202 63.9418C80.0665 63.9418 80.6667 64.0341 81.2206 64.2188C81.7782 64.3999 82.27 64.6591 82.6961 64.9964C83.1258 65.3303 83.4721 65.7262 83.7349 66.1843C83.9976 66.6424 84.1574 67.1449 84.2143 67.6918H81.2206ZM96.512 64.0909V75H94.0404L90.0986 69.2685H90.0347V75H87.073V64.0909H89.5872L93.4651 69.8011H93.5503V64.0909H96.512Z" fill="#0478FF"/>
</svg>
